{
	"asset":{
		"generator":"Khronos glTF Blender I/O v5.1.20",
		"version":"2.0"
	},
	"extensionsUsed":[
		"KHR_lights_punctual",
		"KHR_materials_clearcoat",
		"KHR_materials_specular",
		"KHR_materials_ior"
	],
	"extensionsRequired":[
		"KHR_lights_punctual"
	],
	"extensions":{
		"KHR_lights_punctual":{
			"lights":[
				{
					"color":[
						1,
						1,
						1
					],
					"intensity":683,
					"type":"directional",
					"name":"Light"
				}
			]
		}
	},
	"scene":0,
	"scenes":[
		{
			"name":"Scene",
			"nodes":[
				0,
				1,
				2,
				3
			]
		}
	],
	"nodes":[
		{
			"extensions":{
				"KHR_lights_punctual":{
					"light":0
				}
			},
			"name":"Light",
			"rotation":[
				-0.4865964949131012,
				0.1947745978832245,
				-0.061373189091682434,
				0.8494234085083008
			],
			"translation":[
				4.21924352645874,
				3.218381404876709,
				2.2171621322631836
			]
		},
		{
			"mesh":0,
			"name":"CUBE",
			"scale":[
				1.1923083066940308,
				1.1923083066940308,
				1.1923083066940308
			],
			"translation":[
				0.13883757591247559,
				0.015463784337043762,
				-0.13871663808822632
			]
		},
		{
			"mesh":1,
			"name":"Plane",
			"scale":[
				0.7306473255157471,
				0.7306473255157471,
				0.7306473255157471
			],
			"translation":[
				0.2393045276403427,
				-0.5961790680885315,
				-0.25138089060783386
			]
		},
		{
			"mesh":2,
			"name":"Text",
			"rotation":[
				0.7071068286895752,
				0,
				0,
				0.7071068286895752
			],
			"scale":[
				0.7385686039924622,
				0.7385686039924622,
				0.7385686039924622
			],
			"translation":[
				-0.42112287878990173,
				1.9054828882217407,
				-0.8025631904602051
			]
		}
	],
	"materials":[
		{
			"doubleSided":true,
			"extensions":{
				"KHR_materials_clearcoat":{
					"clearcoatFactor":1,
					"clearcoatRoughnessFactor":0
				},
				"KHR_materials_specular":{
					"specularColorFactor":[
						2.0,
						2.0,
						2.0
					]
				},
				"KHR_materials_ior":{
					"ior":5
				}
			},
			"name":"Material 2",
			"pbrMetallicRoughness":{
				"baseColorFactor":[
					0.011368256993591785,
					0.025171935558319092,
					0.0685877874493599,
					1
				],
				"metallicFactor":0.3136363625526428,
				"roughnessFactor":0
			}
		},
		{
			"doubleSided":true,
			"name":"FLOOR",
			"pbrMetallicRoughness":{
				"baseColorFactor":[
					0.06827787309885025,
					0.06827787309885025,
					0.06827787309885025,
					1
				],
				"metallicFactor":0,
				"roughnessFactor":0.5
			}
		},
		{
			"doubleSided":true,
			"extensions":{
				"KHR_materials_specular":{
					"specularFactor":0.800000011920929
				}
			},
			"name":"text",
			"pbrMetallicRoughness":{
				"baseColorTexture":{
					"index":0
				},
				"metallicFactor":0,
				"roughnessFactor":0.5772727131843567
			}
		}
	],
	"meshes":[
		{
			"name":"Mesh",
			"primitives":[
				{
					"attributes":{
						"POSITION":0,
						"NORMAL":1,
						"TEXCOORD_0":2
					},
					"indices":3,
					"material":0
				}
			]
		},
		{
			"name":"Plane.001",
			"primitives":[
				{
					"attributes":{
						"POSITION":4,
						"NORMAL":5,
						"TEXCOORD_0":6
					},
					"indices":7,
					"material":1
				}
			]
		},
		{
			"name":"Text",
			"primitives":[
				{
					"attributes":{
						"POSITION":8,
						"NORMAL":9,
						"TEXCOORD_0":10,
						"COLOR_0":11,
						"COLOR_1":12,
						"COLOR_2":13
					},
					"indices":14,
					"material":2
				}
			]
		}
	],
	"textures":[
		{
			"sampler":0,
			"source":0
		}
	],
	"images":[
		{
			"mimeType":"image/png",
			"name":"text",
			"uri":"text.png"
		}
	],
	"accessors":[
		{
			"bufferView":0,
			"componentType":5126,
			"count":1649,
			"max":[
				0.5,
				0.5,
				0.5
			],
			"min":[
				-0.5,
				-0.5,
				-0.5
			],
			"type":"VEC3"
		},
		{
			"bufferView":1,
			"componentType":5126,
			"count":1649,
			"type":"VEC3"
		},
		{
			"bufferView":2,
			"componentType":5126,
			"count":1649,
			"type":"VEC2"
		},
		{
			"bufferView":3,
			"componentType":5123,
			"count":9216,
			"type":"SCALAR"
		},
		{
			"bufferView":4,
			"componentType":5126,
			"count":24,
			"max":[
				2.77785587310791,
				0,
				2.77785587310791
			],
			"min":[
				-2.77785587310791,
				-0.07000000029802322,
				-2.77785587310791
			],
			"type":"VEC3"
		},
		{
			"bufferView":5,
			"componentType":5126,
			"count":24,
			"type":"VEC3"
		},
		{
			"bufferView":6,
			"componentType":5126,
			"count":24,
			"type":"VEC2"
		},
		{
			"bufferView":7,
			"componentType":5123,
			"count":36,
			"type":"SCALAR"
		},
		{
			"bufferView":8,
			"componentType":5126,
			"count":678,
			"max":[
				1.7478996515274048,
				0,
				0.007320194039493799
			],
			"min":[
				0.013827033340930939,
				-0.2277393341064453,
				-0.5620282292366028
			],
			"type":"VEC3"
		},
		{
			"bufferView":9,
			"componentType":5126,
			"count":678,
			"type":"VEC3"
		},
		{
			"bufferView":10,
			"componentType":5126,
			"count":678,
			"type":"VEC2"
		},
		{
			"bufferView":11,
			"componentType":5121,
			"count":678,
			"normalized":true,
			"type":"VEC4"
		},
		{
			"bufferView":12,
			"componentType":5123,
			"count":678,
			"normalized":true,
			"type":"VEC4"
		},
		{
			"bufferView":13,
			"componentType":5123,
			"count":678,
			"normalized":true,
			"type":"VEC4"
		},
		{
			"bufferView":14,
			"componentType":5123,
			"count":1752,
			"type":"SCALAR"
		}
	],
	"bufferViews":[
		{
			"buffer":0,
			"byteLength":19788,
			"byteOffset":0,
			"target":34962
		},
		{
			"buffer":0,
			"byteLength":19788,
			"byteOffset":19788,
			"target":34962
		},
		{
			"buffer":0,
			"byteLength":13192,
			"byteOffset":39576,
			"target":34962
		},
		{
			"buffer":0,
			"byteLength":18432,
			"byteOffset":52768,
			"target":34963
		},
		{
			"buffer":0,
			"byteLength":288,
			"byteOffset":71200,
			"target":34962
		},
		{
			"buffer":0,
			"byteLength":288,
			"byteOffset":71488,
			"target":34962
		},
		{
			"buffer":0,
			"byteLength":192,
			"byteOffset":71776,
			"target":34962
		},
		{
			"buffer":0,
			"byteLength":72,
			"byteOffset":71968,
			"target":34963
		},
		{
			"buffer":0,
			"byteLength":8136,
			"byteOffset":72040,
			"target":34962
		},
		{
			"buffer":0,
			"byteLength":8136,
			"byteOffset":80176,
			"target":34962
		},
		{
			"buffer":0,
			"byteLength":5424,
			"byteOffset":88312,
			"target":34962
		},
		{
			"buffer":0,
			"byteLength":2712,
			"byteOffset":93736,
			"target":34962
		},
		{
			"buffer":0,
			"byteLength":5424,
			"byteOffset":96448,
			"target":34962
		},
		{
			"buffer":0,
			"byteLength":5424,
			"byteOffset":101872,
			"target":34962
		},
		{
			"buffer":0,
			"byteLength":3504,
			"byteOffset":107296,
			"target":34963
		}
	],
	"samplers":[
		{
			"magFilter":9729,
			"minFilter":9987
		}
	],
	"buffers":[
		{
			"byteLength":110800,
			"uri":"object.bin"
		}
	]
}
