{"accessors":[{"bufferView":0,"componentType":5123,"count":2304,"max":[440],"min":[0],"type":"SCALAR"},{"bufferView":1,"componentType":5126,"count":441,"max":[1.0,1.0,1.0],"min":[-1.0,-1.0,-1.0],"type":"VEC3"},{"bufferView":2,"componentType":5126,"count":441,"max":[1.0,1.0,1.0],"min":[-1.0,-1.0,-1.0],"type":"VEC3"},{"bufferView":3,"componentType":5126,"count":441,"max":[0.8750001192092896,1.0],"min":[0.125,-1.1920928955078125e-07],"type":"VEC2"},{"bufferView":4,"componentType":5123,"count":9216,"max":[1648],"min":[0],"type":"SCALAR"},{"bufferView":5,"componentType":5126,"count":1649,"max":[1.0,1.0,1.0],"min":[-1.0,-1.0,-1.0],"type":"VEC3"},{"bufferView":6,"componentType":5126,"count":1649,"max":[1.0,1.0,1.0],"min":[-1.0,-1.0,-1.0],"type":"VEC3"},{"bufferView":7,"componentType":5126,"count":1649,"max":[0.8750001192092896,1.0],"min":[0.125,-1.1920928955078125e-07],"type":"VEC2"},{"bufferView":8,"componentType":5123,"count":36864,"max":[6670],"min":[0],"type":"SCALAR"},{"bufferView":9,"componentType":5126,"count":6671,"max":[1.0000001192092896,1.0000001192092896,1.0000001192092896],"min":[-1.0000001192092896,-1.0000001192092896,-1.0000001192092896],"type":"VEC3"},{"bufferView":10,"componentType":5126,"count":6671,"max":[1.0,1.0,1.0],"min":[-1.0,-1.0,-1.0],"type":"VEC3"},{"bufferView":11,"componentType":5126,"count":6671,"max":[0.8750001192092896,1.0],"min":[0.125,-1.1920928955078125e-07],"type":"VEC2"},{"bufferView":12,"componentType":5126,"count":1,"max":[0.0],"min":[0.0],"type":"SCALAR"},{"bufferView":13,"componentType":5126,"count":1,"max":[0.30000007152557373],"min":[0.30000007152557373],"type":"SCALAR"}],"animations":[{"channels":[{"sampler":0,"target":{"extras":{"material":0},"node":3,"path":"material.nodeValue[\"PaintLayer_Opacity_4.002\"]"}}],"extensions":{"S8S_v3d_animation":{"auto":true,"loop":"REPEAT","offset":0.0,"repeatCount":1.0,"repeatInfinite":true}},"name":"Cube","samplers":[{"input":12,"interpolation":"LINEAR","output":13}]}],"asset":{"generator":"Verge3D for Blender v4.13.0","version":"2.0"},"bufferViews":[{"buffer":0,"byteLength":4608,"byteOffset":0,"target":34963},{"buffer":0,"byteLength":5292,"byteOffset":4608,"target":34962},{"buffer":0,"byteLength":5292,"byteOffset":9900,"target":34962},{"buffer":0,"byteLength":3528,"byteOffset":15192,"target":34962},{"buffer":0,"byteLength":18432,"byteOffset":18720,"target":34963},{"buffer":0,"byteLength":19788,"byteOffset":37152,"target":34962},{"buffer":0,"byteLength":19788,"byteOffset":56940,"target":34962},{"buffer":0,"byteLength":13192,"byteOffset":76728,"target":34962},{"buffer":0,"byteLength":73728,"byteOffset":89920,"target":34963},{"buffer":0,"byteLength":80052,"byteOffset":163648,"target":34962},{"buffer":0,"byteLength":80052,"byteOffset":243700,"target":34962},{"buffer":0,"byteLength":53368,"byteOffset":323752,"target":34962},{"buffer":0,"byteLength":4,"byteOffset":377120},{"buffer":0,"byteLength":4,"byteOffset":377124}],"buffers":[{"byteLength":377128,"uri":"Untitled.bin"}],"cameras":[{"extensions":{"S8S_v3d_camera":{"controls":"ORBIT","enablePan":true,"moveSpeed":1.0,"orbitMaxDistance":100.0,"orbitMaxPolarAngle":3.1415927410125732,"orbitMaxZoom":100.0,"orbitMinDistance":0.0,"orbitMinPolarAngle":0.0,"orbitMinZoom":0.009999999776482582,"orbitTarget":[0.0,0.0,-0.0],"rotateSpeed":1.0,"viewportFitInitialAspect":1.7777777777777777,"viewportFitType":"AUTO"}},"name":"Camera","perspective":{"aspectRatio":1.7777777777777777,"yfov":0.39959652046304894,"zfar":100.0,"znear":0.10000000149011612},"type":"perspective"}],"extensions":{"S8S_v3d_lights":{"lights":[{"color":[1.0,1.0,1.0],"decay":2,"distance":31.622776955095866,"intensity":1000.0,"name":"Light","power":1000.0,"profile":"blender","shadow":{"bias":-0.0018,"cameraFar":31.622776955095866,"cameraFov":0,"cameraNear":0.05000000074505806,"enabled":true,"expBias":2.5,"mapSize":512,"radius":1.0,"slopeScaledBias":2.5},"type":"point"}]}},"extensionsUsed":["S8S_v3d_texture","S8S_v3d_materials","S8S_v3d_camera","S8S_v3d_lights","S8S_v3d_mesh","S8S_v3d_node","S8S_v3d_animation","S8S_v3d_scene"],"images":[{"uri":"LOGO YELLOW.png"},{"uri":"RUS-огоньки.png"},{"uri":"RUS-2026.png"},{"uri":"LOGO WHITE.png"}],"materials":[{"alphaMode":"OPAQUE","extensions":{"S8S_v3d_materials":{"gtaoVisible":true,"materialIndex":0,"nodeGraph":{"edges":[{"fromNode":1,"fromOutput":0,"toInput":0,"toNode":0},{"fromNode":2,"fromOutput":1,"toInput":0,"toNode":4},{"fromNode":6,"fromOutput":0,"toInput":0,"toNode":2},{"fromNode":7,"fromOutput":2,"toInput":0,"toNode":6},{"fromNode":3,"fromOutput":0,"toInput":1,"toNode":4},{"fromNode":4,"fromOutput":0,"toInput":7,"toNode":5},{"fromNode":9,"fromOutput":1,"toInput":0,"toNode":11},{"fromNode":10,"fromOutput":0,"toInput":1,"toNode":11},{"fromNode":11,"fromOutput":0,"toInput":0,"toNode":12},{"fromNode":9,"fromOutput":0,"toInput":7,"toNode":12},{"fromNode":14,"fromOutput":1,"toInput":0,"toNode":16},{"fromNode":15,"fromOutput":0,"toInput":1,"toNode":16},{"fromNode":16,"fromOutput":0,"toInput":0,"toNode":17},{"fromNode":19,"fromOutput":2,"toInput":7,"toNode":17},{"fromNode":17,"fromOutput":2,"toInput":0,"toNode":1},{"fromNode":12,"fromOutput":2,"toInput":6,"toNode":17},{"fromNode":21,"fromOutput":2,"toInput":0,"toNode":20},{"fromNode":20,"fromOutput":0,"toInput":0,"toNode":14},{"fromNode":5,"fromOutput":2,"toInput":6,"toNode":12},{"fromNode":23,"fromOutput":2,"toInput":0,"toNode":22},{"fromNode":22,"fromOutput":0,"toInput":0,"toNode":9},{"fromNode":14,"fromOutput":0,"toInput":7,"toNode":19}],"nodes":[{"inputs":[[0,0,0,0],[0,0,0,0],[0.0,0.0,0.0],0.0],"is_active_output":true,"name":"Material Output","outputs":[],"type":"OUTPUT_MATERIAL_BL"},{"inputs":[[0.04637408256530762,0.018840907141566277,0.01694752834737301,1.0],0.0,0.5679012537002563,1.2999999523162842,1.0,[0.0,0.0,0.0],0.0,0.0,[1.0,0.20000000298023224,0.10000000149011612],0.05000000074505806,1.399999976158142,0.0,0.5,[1.0,1.0,1.0,1.0],0.0,0.0,[0.0,0.0,0.0],0.0,0.0,0.029999999329447746,1.5,[1.0,1.0,1.0,1.0],[0.0,0.0,0.0],0.0,0.5,[1.0,1.0,1.0,1.0],[1.0,1.0,1.0,1.0],0.0,0.0,1.3300000429153442],"is_active_output":false,"name":"Principled BSDF","outputs":[[0,0,0,0]],"type":"BSDF_PRINCIPLED_BL"},{"alphaMode":"STRAIGHT","inputs":[[0.0,0.0,0.0]],"is_active_output":false,"name":"PaintLayer_Tex_0.001","outputs":[[0.800000011920929,0.800000011920929,0.800000011920929,1.0],0.0],"projection":"FLAT","projectionBlend":0.0,"texture":0,"type":"TEX_IMAGE_BL"},{"inputs":[],"is_active_output":false,"name":"PaintLayer_Opacity_0.001","outputs":[1.0],"type":"VALUE_BL"},{"inputs":[0.5,0.5,0.5],"is_active_output":false,"name":"PaintLayer_Mul_0.001","operation":"MULTIPLY","outputs":[0.0],"type":"MATH_BL","useClamp":false},{"blendType":"MULTIPLY","clampFactor":true,"clampResult":true,"dataType":"RGBA","factorMode":"UNIFORM","inputs":[1.0,[0.5,0.5,0.5],0.0,0.0,[0.0,0.0,0.0],[0.0,0.0,0.0],[0.019076934084296227,0.0,0.20939676463603973,1.0],[0.5,0.5,0.5,1.0],0,0],"is_active_output":false,"name":"PaintLayer_Mix_0.002","outputs":[0.0,[0.0,0.0,0.0],[0.800000011920929,0.800000011920929,0.800000011920929,1.0],0],"type":"MIX_BL"},{"inputs":[[0.0,0.0,0.0],[0.0,0.0,0.0],[0.0,0.0,1.5707963705062866],[1.0,1.0,1.0]],"is_active_output":false,"name":"Mapping.002","outputs":[[0.0,0.0,0.0]],"type":"MAPPING_BL","vectorType":"POINT"},{"inputs":[],"is_active_output":false,"name":"Texture Coordinate.002","object":-1,"outputs":[[0.0,0.0,0.0],[0.0,0.0,0.0],[0.0,0.0,0.0],[0.0,0.0,0.0],[0.0,0.0,0.0],[0.0,0.0,0.0],[0.0,0.0,0.0]],"type":"TEX_COORD_BL"},{"inputs":[],"is_active_output":false,"name":"Frame.002","outputs":[],"type":"FRAME_BL"},{"alphaMode":"STRAIGHT","inputs":[[0.0,0.0,0.0]],"is_active_output":false,"name":"PaintLayer_Tex_4","outputs":[[0.800000011920929,0.800000011920929,0.800000011920929,1.0],0.0],"projection":"FLAT","projectionBlend":0.0,"texture":1,"type":"TEX_IMAGE_BL"},{"inputs":[],"is_active_output":false,"name":"PaintLayer_Opacity_4","outputs":[1.0],"type":"VALUE_BL"},{"inputs":[0.5,0.5,0.5],"is_active_output":false,"name":"PaintLayer_Mul_4","operation":"MULTIPLY","outputs":[0.0],"type":"MATH_BL","useClamp":false},{"blendType":"MIX","clampFactor":true,"clampResult":true,"dataType":"RGBA","factorMode":"UNIFORM","inputs":[0.5,[0.5,0.5,0.5],0.0,0.0,[0.0,0.0,0.0],[0.0,0.0,0.0],[0.5,0.5,0.5,1.0],[0.5,0.5,0.5,1.0],0,0],"is_active_output":false,"name":"PaintLayer_Mix_4","outputs":[0.0,[0.0,0.0,0.0],[0.800000011920929,0.800000011920929,0.800000011920929,1.0],0],"type":"MIX_BL"},{"inputs":[],"is_active_output":false,"name":"Frame.001","outputs":[],"type":"FRAME_BL"},{"alphaMode":"STRAIGHT","inputs":[[0.0,0.0,0.0]],"is_active_output":false,"name":"PaintLayer_Tex_4.002","outputs":[[0.800000011920929,0.800000011920929,0.800000011920929,1.0],0.0],"projection":"FLAT","projectionBlend":0.0,"texture":2,"type":"TEX_IMAGE_BL"},{"inputs":[],"is_active_output":false,"name":"PaintLayer_Opacity_4.002","outputs":[0.30000007152557373],"type":"VALUE_BL"},{"inputs":[0.5,0.5,0.5],"is_active_output":false,"name":"PaintLayer_Mul_4.002","operation":"MULTIPLY","outputs":[0.0],"type":"MATH_BL","useClamp":false},{"blendType":"MIX","clampFactor":true,"clampResult":true,"dataType":"RGBA","factorMode":"UNIFORM","inputs":[0.5,[0.5,0.5,0.5],0.0,0.0,[0.0,0.0,0.0],[0.0,0.0,0.0],[0.5,0.5,0.5,1.0],[0.5,0.5,0.5,1.0],0,0],"is_active_output":false,"name":"PaintLayer_Mix_4.002","outputs":[0.0,[0.0,0.0,0.0],[0.800000011920929,0.800000011920929,0.800000011920929,1.0],0],"type":"MIX_BL"},{"inputs":[],"is_active_output":false,"name":"Frame","outputs":[],"type":"FRAME_BL"},{"blendType":"MULTIPLY","clampFactor":false,"clampResult":false,"dataType":"RGBA","factorMode":"UNIFORM","inputs":[1.0,[0.5,0.5,0.5],0.0,0.0,[0.0,0.0,0.0],[0.0,0.0,0.0],[1.0,0.0038651234935969114,0.0,1.0],[1.0,0.08607606589794159,0.0,1.0],0,0],"is_active_output":false,"name":"PaintLayer_Mix_1.001","outputs":[0.0,[0.0,0.0,0.0],[0.800000011920929,0.800000011920929,0.800000011920929,1.0],0],"type":"MIX_BL"},{"inputs":[[0.0,0.0,0.0],[0.25,0.28999999165534973,0.0],[0.0,0.0,0.0],[2.0,2.0,1.0]],"is_active_output":false,"name":"Mapping.003","outputs":[[0.0,0.0,0.0]],"type":"MAPPING_BL","vectorType":"POINT"},{"inputs":[],"is_active_output":false,"name":"Texture Coordinate.003","object":-1,"outputs":[[0.0,0.0,0.0],[0.0,0.0,0.0],[0.0,0.0,0.0],[0.0,0.0,0.0],[0.0,0.0,0.0],[0.0,0.0,0.0],[0.0,0.0,0.0]],"type":"TEX_COORD_BL"},{"inputs":[[0.0,0.0,0.0],[0.7599999308586121,0.23999997973442078,0.0],[0.0,0.0,0.0],[1.5000001192092896,1.5000001192092896,1.0]],"is_active_output":false,"name":"Mapping.004","outputs":[[0.0,0.0,0.0]],"type":"MAPPING_BL","vectorType":"POINT"},{"inputs":[],"is_active_output":false,"name":"Texture Coordinate.004","object":-1,"outputs":[[0.0,0.0,0.0],[0.0,0.0,0.0],[0.0,0.0,0.0],[0.0,0.0,0.0],[0.0,0.0,0.0],[0.0,0.0,0.0],[0.0,0.0,0.0]],"type":"TEX_COORD_BL"}]}}},"name":"Material"},{"alphaMode":"OPAQUE","extensions":{"S8S_v3d_materials":{"gtaoVisible":true,"materialIndex":0,"nodeGraph":{"edges":[{"fromNode":0,"fromOutput":0,"toInput":0,"toNode":1},{"fromNode":9,"fromOutput":0,"toInput":0,"toNode":4},{"fromNode":10,"fromOutput":0,"toInput":0,"toNode":5},{"fromNode":4,"fromOutput":1,"toInput":0,"toNode":6},{"fromNode":6,"fromOutput":2,"toInput":6,"toNode":7},{"fromNode":5,"fromOutput":1,"toInput":0,"toNode":7},{"fromNode":7,"fromOutput":2,"toInput":0,"toNode":0},{"fromNode":8,"fromOutput":0,"toInput":0,"toNode":3},{"fromNode":2,"fromOutput":0,"toInput":0,"toNode":8},{"fromNode":2,"fromOutput":0,"toInput":0,"toNode":9},{"fromNode":2,"fromOutput":0,"toInput":0,"toNode":10},{"fromNode":11,"fromOutput":2,"toInput":6,"toNode":6},{"fromNode":12,"fromOutput":2,"toInput":7,"toNode":6},{"fromNode":13,"fromOutput":2,"toInput":7,"toNode":7},{"fromNode":3,"fromOutput":0,"toInput":7,"toNode":11},{"fromNode":5,"fromOutput":0,"toInput":7,"toNode":13},{"fromNode":4,"fromOutput":0,"toInput":6,"toNode":12}],"nodes":[{"inputs":[[0.08241519331932068,0.00014785495295654982,0.02127026952803135,1.0],0.0,0.5,1.2000000476837158,1.0,[0.0,0.0,0.0],0.0,0.0,[1.0,0.20000000298023224,0.10000000149011612],0.05000000074505806,1.399999976158142,0.0,0.5,[1.0,1.0,1.0,1.0],0.0,0.0,[0.0,0.0,0.0],0.0,0.0,0.029999999329447746,1.5,[1.0,1.0,1.0,1.0],[0.0,0.0,0.0],0.0,0.5,[1.0,1.0,1.0,1.0],[1.0,1.0,1.0,1.0],0.0,0.0,1.3300000429153442],"is_active_output":false,"name":"Principled BSDF","outputs":[[0,0,0,0]],"type":"BSDF_PRINCIPLED_BL"},{"inputs":[[0,0,0,0],[0,0,0,0],[0.0,0.0,0.0],0.0],"is_active_output":true,"name":"Material Output","outputs":[],"type":"OUTPUT_MATERIAL_BL"},{"inputs":[],"is_active_output":false,"name":"UV Map","outputs":[[0.0,0.0,0.0]],"type":"UVMAP_BL","uvLayer":""},{"alphaMode":"STRAIGHT","inputs":[[0.0,0.0,0.0]],"is_active_output":false,"name":"Tex_LOGO WHITE","outputs":[[0.800000011920929,0.800000011920929,0.800000011920929,1.0],0.0],"projection":"FLAT","projectionBlend":0.0,"texture":3,"type":"TEX_IMAGE_BL"},{"alphaMode":"STRAIGHT","inputs":[[0.0,0.0,0.0]],"is_active_output":false,"name":"Tex_POINT diffuse","outputs":[[0.800000011920929,0.800000011920929,0.800000011920929,1.0],0.0],"projection":"FLAT","projectionBlend":0.0,"texture":1,"type":"TEX_IMAGE_BL"},{"alphaMode":"STRAIGHT","inputs":[[0.0,0.0,0.0]],"is_active_output":false,"name":"Tex_КЛЕПКИ-РЕМЕНЬ","outputs":[[0.800000011920929,0.800000011920929,0.800000011920929,1.0],0.0],"projection":"FLAT","projectionBlend":0.0,"texture":0,"type":"TEX_IMAGE_BL"},{"blendType":"MIX","clampFactor":true,"clampResult":true,"dataType":"RGBA","factorMode":"UNIFORM","inputs":[0.5,[0.5,0.5,0.5],0.0,0.0,[0.0,0.0,0.0],[0.0,0.0,0.0],[0.5,0.5,0.5,1.0],[0.5,0.5,0.5,1.0],0,0],"is_active_output":false,"name":"Mix","outputs":[0.0,[0.0,0.0,0.0],[0.800000011920929,0.800000011920929,0.800000011920929,1.0],0],"type":"MIX_BL"},{"blendType":"MIX","clampFactor":true,"clampResult":true,"dataType":"RGBA","factorMode":"UNIFORM","inputs":[0.5,[0.5,0.5,0.5],0.0,0.0,[0.0,0.0,0.0],[0.0,0.0,0.0],[0.5,0.5,0.5,1.0],[0.5,0.5,0.5,1.0],0,0],"is_active_output":false,"name":"Mix.001","outputs":[0.0,[0.0,0.0,0.0],[0.800000011920929,0.800000011920929,0.800000011920929,1.0],0],"type":"MIX_BL"},{"inputs":[[0.0,0.0,0.0],[-1.3499999046325684,-1.3799998760223389,0.0],[0.0,0.0,0.0],[3.0,3.0,1.0]],"is_active_output":false,"name":"Mapping","outputs":[[0.0,0.0,0.0]],"type":"MAPPING_BL","vectorType":"POINT"},{"inputs":[[0.0,0.0,0.0],[-0.5099999904632568,-0.7399998903274536,0.0],[0.0,0.0,0.0],[2.0,2.0,1.0]],"is_active_output":false,"name":"Mapping.001","outputs":[[0.0,0.0,0.0]],"type":"MAPPING_BL","vectorType":"POINT"},{"inputs":[[0.0,0.0,0.0],[-0.9799999594688416,-0.6899999380111694,0.0],[0.0,0.0,0.0],[3.0,3.0,1.0]],"is_active_output":false,"name":"Mapping.002","outputs":[[0.0,0.0,0.0]],"type":"MAPPING_BL","vectorType":"POINT"},{"blendType":"MULTIPLY","clampFactor":true,"clampResult":true,"dataType":"RGBA","factorMode":"UNIFORM","inputs":[1.0,[0.5,0.5,0.5],0.0,0.0,[0.0,0.0,0.0],[0.0,0.0,0.0],[0.0,0.029566092416644096,0.6544573307037354,1.0],[1.0,0.0,0.237147718667984,1.0],0,0],"is_active_output":false,"name":"Tint_LOGO WHITE","outputs":[0.0,[0.0,0.0,0.0],[0.800000011920929,0.800000011920929,0.800000011920929,1.0],0],"type":"MIX_BL"},{"blendType":"MIX","clampFactor":true,"clampResult":true,"dataType":"RGBA","factorMode":"UNIFORM","inputs":[0.0,[0.5,0.5,0.5],0.0,0.0,[0.0,0.0,0.0],[0.0,0.0,0.0],[1.0,0.13347364962100983,0.00018257460033055395,1.0],[1.0,0.12161750346422195,0.019217045977711678,1.0],0,0],"is_active_output":false,"name":"Tint_POINT diffuse","outputs":[0.0,[0.0,0.0,0.0],[0.800000011920929,0.800000011920929,0.800000011920929,1.0],0],"type":"MIX_BL"},{"blendType":"MULTIPLY","clampFactor":true,"clampResult":true,"dataType":"RGBA","factorMode":"UNIFORM","inputs":[0.0,[0.5,0.5,0.5],0.0,0.0,[0.0,0.0,0.0],[0.0,0.0,0.0],[1.0,0.03648532181978226,9.440746362088248e-05,1.0],[1.0,1.0,1.0,1.0],0,0],"is_active_output":false,"name":"Tint_КЛЕПКИ-РЕМЕНЬ","outputs":[0.0,[0.0,0.0,0.0],[0.800000011920929,0.800000011920929,0.800000011920929,1.0],0],"type":"MIX_BL"}]}}},"name":"Material.001"},{"alphaMode":"OPAQUE","extensions":{"S8S_v3d_materials":{"gtaoVisible":true,"materialIndex":0,"nodeGraph":{"edges":[{"fromNode":0,"fromOutput":0,"toInput":0,"toNode":1},{"fromNode":2,"fromOutput":0,"toInput":0,"toNode":3},{"fromNode":3,"fromOutput":0,"toInput":0,"toNode":4},{"fromNode":3,"fromOutput":0,"toInput":0,"toNode":5},{"fromNode":5,"fromOutput":1,"toInput":0,"toNode":6},{"fromNode":4,"fromOutput":0,"toInput":0,"toNode":7},{"fromNode":3,"fromOutput":0,"toInput":0,"toNode":8},{"fromNode":8,"fromOutput":0,"toInput":0,"toNode":9},{"fromNode":7,"fromOutput":0,"toInput":0,"toNode":10},{"fromNode":9,"fromOutput":0,"toInput":1,"toNode":10},{"fromNode":10,"fromOutput":0,"toInput":0,"toNode":11},{"fromNode":10,"fromOutput":0,"toInput":1,"toNode":11},{"fromNode":10,"fromOutput":0,"toInput":2,"toNode":11},{"fromNode":6,"fromOutput":0,"toInput":6,"toNode":12},{"fromNode":11,"fromOutput":0,"toInput":7,"toNode":12},{"fromNode":4,"fromOutput":1,"toInput":0,"toNode":13},{"fromNode":13,"fromOutput":0,"toInput":0,"toNode":14},{"fromNode":13,"fromOutput":0,"toInput":1,"toNode":14},{"fromNode":13,"fromOutput":0,"toInput":2,"toNode":14},{"fromNode":12,"fromOutput":2,"toInput":6,"toNode":15},{"fromNode":14,"fromOutput":0,"toInput":7,"toNode":15},{"fromNode":15,"fromOutput":2,"toInput":0,"toNode":0},{"fromNode":16,"fromOutput":0,"toInput":0,"toNode":17},{"fromNode":4,"fromOutput":1,"toInput":0,"toNode":18},{"fromNode":17,"fromOutput":0,"toInput":2,"toNode":18},{"fromNode":18,"fromOutput":0,"toInput":0,"toNode":19},{"fromNode":19,"fromOutput":0,"toInput":2,"toNode":0},{"fromNode":5,"fromOutput":1,"toInput":3,"toNode":20},{"fromNode":4,"fromOutput":1,"toInput":3,"toNode":21},{"fromNode":20,"fromOutput":0,"toInput":4,"toNode":21},{"fromNode":21,"fromOutput":0,"toInput":5,"toNode":0}],"nodes":[{"inputs":[[0.800000011920929,0.800000011920929,0.800000011920929,1.0],0.0,0.5,1.5,1.0,[0.0,0.0,0.0],0.0,0.0,[1.0,0.20000000298023224,0.10000000149011612],0.05000000074505806,1.399999976158142,0.0,0.4000000059604645,[1.0,1.0,1.0,1.0],0.0,0.0,[0.0,0.0,0.0],0.0,0.0,0.029999999329447746,1.5,[1.0,1.0,1.0,1.0],[0.0,0.0,0.0],0.0,0.5,[1.0,1.0,1.0,1.0],[1.0,1.0,1.0,1.0],0.0,0.0,1.3300000429153442],"is_active_output":false,"name":"Principled BSDF","outputs":[[0,0,0,0]],"type":"BSDF_PRINCIPLED_BL"},{"inputs":[[0,0,0,0],[0,0,0,0],[0.0,0.0,0.0],0.0],"is_active_output":true,"name":"Material Output","outputs":[],"type":"OUTPUT_MATERIAL_BL"},{"inputs":[],"is_active_output":false,"name":"Texture Coordinate","object":-1,"outputs":[[0.0,0.0,0.0],[0.0,0.0,0.0],[0.0,0.0,0.0],[0.0,0.0,0.0],[0.0,0.0,0.0],[0.0,0.0,0.0],[0.0,0.0,0.0]],"type":"TEX_COORD_BL"},{"inputs":[[0.0,0.0,0.0],[0.0,0.0,0.0],[0.0,0.0,0.0],[1.0,1.0,1.0]],"is_active_output":false,"name":"Mapping","outputs":[[0.0,0.0,0.0]],"type":"MAPPING_BL","vectorType":"POINT"},{"inputs":[[0.0,0.0,0.0],[0.0,0.0,0.0,1.0],[1.0,1.0,1.0,1.0],[0.0,0.0,0.0,1.0],5.0,0.014999999664723873,0.10000000149011612,0.0,2.0,0.25],"is_active_output":false,"name":"Brick Texture","offset":0.5,"offsetFrequency":2,"outputs":[[0.800000011920929,0.800000011920929,0.800000011920929,1.0],0.0],"squash":1.0,"squashFrequency":2,"type":"TEX_BRICK_BL"},{"bandsDirection":"X","inputs":[[0.0,0.0,0.0],8.0,6.0,4.0,2.0,0.5,0.0],"is_active_output":false,"name":"Wave Texture","outputs":[[0.800000011920929,0.800000011920929,0.800000011920929,1.0],0.0],"ringsDirection":"X","type":"TEX_WAVE_BL","waveProfile":"SIN","waveType":"BANDS"},{"curve":{"input":[0.0,0.550000011920929,1.0],"interpolation":"LINEAR","output":[0.10000000149011612,0.05000000074505806,0.019999999552965164,1.0,0.30000001192092896,0.17000000178813934,0.07999999821186066,1.0,0.44999998807907104,0.27000001072883606,0.14000000059604645,1.0]},"inputs":[0.5],"is_active_output":false,"name":"Color Ramp","outputs":[[0.800000011920929,0.800000011920929,0.800000011920929,1.0],0.0],"type":"VALTORGB_BL"},{"clamp":true,"dataType":"FLOAT","inputs":[1.0,0.0,1.0,0.75,1.25,4.0,[0.0,0.0,0.0],[0.0,0.0,0.0],[1.0,1.0,1.0],[0.0,0.0,0.0],[1.0,1.0,1.0],[4.0,4.0,4.0]],"interpolationType":"LINEAR","is_active_output":false,"name":"Map Range","outputs":[0.0,[0.0,0.0,0.0]],"type":"MAP_RANGE_BL"},{"dispersionFactor":1.0,"falloffFactor":0.0,"inputs":[[0.0,0.0,0.0],0.0,20.0,2.0,0.5,2.0,0.0,1.0,0.0],"is_active_output":false,"name":"Noise Texture","noiseType":"FBM","outputs":[0.0,[0.800000011920929,0.800000011920929,0.800000011920929,1.0]],"type":"TEX_NOISE_BL"},{"clamp":true,"dataType":"FLOAT","inputs":[1.0,0.0,1.0,0.8999999761581421,1.100000023841858,4.0,[0.0,0.0,0.0],[0.0,0.0,0.0],[1.0,1.0,1.0],[0.0,0.0,0.0],[1.0,1.0,1.0],[4.0,4.0,4.0]],"interpolationType":"LINEAR","is_active_output":false,"name":"Map Range.001","outputs":[0.0,[0.0,0.0,0.0]],"type":"MAP_RANGE_BL"},{"inputs":[0.5,0.5,0.5],"is_active_output":false,"name":"Math","operation":"MULTIPLY","outputs":[0.0],"type":"MATH_BL","useClamp":false},{"inputs":[0.0,0.0,0.0],"is_active_output":false,"mode":"RGB","name":"Combine Color","outputs":[[0.800000011920929,0.800000011920929,0.800000011920929,1.0]],"type":"COMBINE_COLOR_BL"},{"blendType":"MULTIPLY","clampFactor":true,"clampResult":true,"dataType":"RGBA","factorMode":"UNIFORM","inputs":[1.0,[0.5,0.5,0.5],0.0,0.0,[0.0,0.0,0.0],[0.0,0.0,0.0],[0.5,0.5,0.5,1.0],[0.5,0.5,0.5,1.0],0,0],"is_active_output":false,"name":"Mix","outputs":[0.0,[0.0,0.0,0.0],[0.800000011920929,0.800000011920929,0.800000011920929,1.0],0],"type":"MIX_BL"},{"clamp":true,"dataType":"FLOAT","inputs":[1.0,0.0,1.0,1.0,0.15000000596046448,4.0,[0.0,0.0,0.0],[0.0,0.0,0.0],[1.0,1.0,1.0],[0.0,0.0,0.0],[1.0,1.0,1.0],[4.0,4.0,4.0]],"interpolationType":"LINEAR","is_active_output":false,"name":"Map Range.002","outputs":[0.0,[0.0,0.0,0.0]],"type":"MAP_RANGE_BL"},{"inputs":[0.0,0.0,0.0],"is_active_output":false,"mode":"RGB","name":"Combine Color.001","outputs":[[0.800000011920929,0.800000011920929,0.800000011920929,1.0]],"type":"COMBINE_COLOR_BL"},{"blendType":"MULTIPLY","clampFactor":true,"clampResult":true,"dataType":"RGBA","factorMode":"UNIFORM","inputs":[1.0,[0.5,0.5,0.5],0.0,0.0,[0.0,0.0,0.0],[0.0,0.0,0.0],[0.5,0.5,0.5,1.0],[0.5,0.5,0.5,1.0],0,0],"is_active_output":false,"name":"Mix.001","outputs":[0.0,[0.0,0.0,0.0],[0.800000011920929,0.800000011920929,0.800000011920929,1.0],0],"type":"MIX_BL"},{"dispersionFactor":1.0,"falloffFactor":0.0,"inputs":[[0.0,0.0,0.0],0.0,3.0,3.0,0.5,2.0,0.0,1.0,0.0],"is_active_output":false,"name":"Noise Texture.001","noiseType":"FBM","outputs":[0.0,[0.800000011920929,0.800000011920929,0.800000011920929,1.0]],"type":"TEX_NOISE_BL"},{"clamp":true,"dataType":"FLOAT","inputs":[1.0,0.0,1.0,0.30000001192092896,0.550000011920929,4.0,[0.0,0.0,0.0],[0.0,0.0,0.0],[1.0,1.0,1.0],[0.0,0.0,0.0],[1.0,1.0,1.0],[4.0,4.0,4.0]],"interpolationType":"LINEAR","is_active_output":false,"name":"Map Range.003","outputs":[0.0,[0.0,0.0,0.0]],"type":"MAP_RANGE_BL"},{"inputs":[0.5,0.3499999940395355,0.5],"is_active_output":false,"name":"Math.001","operation":"MULTIPLY_ADD","outputs":[0.0],"type":"MATH_BL","useClamp":false},{"clampType":"MINMAX","inputs":[1.0,0.0,1.0],"is_active_output":false,"name":"Clamp","outputs":[0.0],"type":"CLAMP_BL"},{"inputs":[0.5,0.009999999776482582,0.10000000149011612,1.0,[0.0,0.0,0.0]],"invert":false,"is_active_output":false,"name":"Bump","outputs":[[0.0,0.0,0.0]],"type":"BUMP_BL"},{"inputs":[0.4000000059604645,0.019999999552965164,0.10000000149011612,1.0,[0.0,0.0,0.0]],"invert":true,"is_active_output":false,"name":"Bump.001","outputs":[[0.0,0.0,0.0]],"type":"BUMP_BL"}]}}},"name":"Material.002"},{"alphaMode":"OPAQUE","extensions":{"S8S_v3d_materials":{"gtaoVisible":true,"materialIndex":0,"nodeGraph":{"edges":[{"fromNode":1,"fromOutput":0,"toInput":0,"toNode":0}],"nodes":[{"inputs":[[0,0,0,0],[0,0,0,0]],"is_active_output":true,"name":"World Output","outputs":[],"type":"OUTPUT_WORLD_BL"},{"inputs":[[0.05087608844041824,0.05087608844041824,0.05087608844041824,1.0],1.0],"is_active_output":false,"name":"Background","outputs":[[0,0,0,0]],"type":"BACKGROUND_BL"}]}}},"name":"Verge3D_Environment_World"}],"meshes":[{"extensions":{"S8S_v3d_mesh":{"colorLayers":{},"uvLayers":{"UVMap":"TEXCOORD_0"}}},"name":"Cube","primitives":[{"attributes":{"NORMAL":2,"POSITION":1,"TEXCOORD_0":3},"indices":0,"material":0,"mode":4}]},{"extensions":{"S8S_v3d_mesh":{"colorLayers":{},"uvLayers":{"UVMap":"TEXCOORD_0"}}},"name":"Cube.001","primitives":[{"attributes":{"NORMAL":6,"POSITION":5,"TEXCOORD_0":7},"indices":4,"material":1,"mode":4}]},{"extensions":{"S8S_v3d_mesh":{"colorLayers":{},"uvLayers":{"UVMap":"TEXCOORD_0"}}},"name":"Cube.002","primitives":[{"attributes":{"NORMAL":10,"POSITION":9,"TEXCOORD_0":11},"indices":8,"material":2,"mode":4}]}],"nodes":[{"camera":0,"extensions":{"S8S_v3d_node":{"frustumCulling":true,"groupNames":["Collection"],"renderOrder":0}},"name":"Camera","rotation":[-0.20997296273708344,0.3857799470424652,0.09062838554382324,0.8937962055206299],"scale":[1.0,0.9999998807907104,0.9999998807907104],"translation":[2.2996790409088135,2.5367846488952637,2.1430230140686035]},{"extensions":{"S8S_v3d_node":{"frustumCulling":true,"groupNames":["Collection","RigidBodyWorld"],"hidden":true,"renderOrder":0,"useCastShadows":true,"useShadows":true}},"mesh":1,"name":"Cube ","scale":[0.5,0.5,0.5],"translation":[1.4012515544891357,1.0,-0.0]},{"extensions":{"S8S_v3d_node":{"frustumCulling":true,"groupNames":["Collection","RigidBodyWorld"],"renderOrder":0,"useCastShadows":true,"useShadows":true}},"mesh":2,"name":"ПОЛ","scale":[0.5,0.5,0.5],"translation":[1.4012515544891357,1.0,-1.4196516275405884]},{"extensions":{"S8S_v3d_node":{"frustumCulling":true,"groupNames":["Collection","RigidBodyWorld"],"hidden":true,"renderOrder":0,"useCastShadows":true,"useShadows":true}},"mesh":0,"name":"Cube","scale":[0.5,0.5,0.5],"translation":[0.0,1.0,-0.0]},{"extensions":{"S8S_v3d_lights":{"light":0},"S8S_v3d_node":{"frustumCulling":true,"groupNames":["Collection"],"renderOrder":0}},"name":"Light","rotation":[-0.28416627645492554,0.7269423007965088,0.34203392267227173,0.5232754945755005],"scale":[1.0,0.9999998807907104,0.9999998807907104],"translation":[4.076245307922363,5.903861999511719,-1.0054539442062378]}],"samplers":[{},{"magFilter":9729,"minFilter":9987,"wrapS":33071,"wrapT":33071}],"scene":0,"scenes":[{"extensions":{"S8S_v3d_scene":{"aaMethod":"AUTO","iblEnvironmentMode":"PMREM","pmremMaxTileSize":512,"shadowMap":{"esmDistanceScale":1.0,"renderReverseSided":false,"renderSingleSided":true,"type":"PCFPOISSON"},"toneMapping":{"exposure":1.0,"look":"NONE","type":"agxBlender"},"worldMaterial":3}},"extras":{"animFrameRate":24,"coordSystem":"Z_UP_RIGHT"},"name":"Scene","nodes":[3,4,0,1,2]}],"textures":[{"extensions":{"S8S_v3d_texture":{"colorSpace":"srgb"}},"name":"LOGO YELLOW.png","sampler":0,"source":0},{"extensions":{"S8S_v3d_texture":{"colorSpace":"srgb"}},"name":"RUS-огоньки.png","sampler":0,"source":1},{"extensions":{"S8S_v3d_texture":{"colorSpace":"srgb"}},"name":"RUS-2026.png","sampler":0,"source":2},{"extensions":{"S8S_v3d_texture":{"colorSpace":"srgb"}},"name":"LOGO WHITE.png","sampler":1,"source":3},{"extensions":{"S8S_v3d_texture":{"colorSpace":"srgb"}},"name":"RUS-огоньки.png","sampler":1,"source":1},{"extensions":{"S8S_v3d_texture":{"colorSpace":"srgb"}},"name":"LOGO YELLOW.png","sampler":1,"source":0}]}
