{
	"asset":{
		"generator":"Khronos glTF Blender I/O v5.1.20",
		"version":"2.0"
	},
	"extensionsUsed":[
		"KHR_materials_specular"
	],
	"scene":0,
	"scenes":[
		{
			"name":"Scene",
			"nodes":[
				0,
				1,
				2,
				3
			]
		}
	],
	"nodes":[
		{
			"mesh":0,
			"name":"1",
			"scale":[
				0.5,
				0.5,
				0.5
			],
			"translation":[
				-0.7589032053947449,
				0.006384730339050293,
				0.6493707299232483
			]
		},
		{
			"mesh":1,
			"name":"2",
			"scale":[
				0.5,
				0.5,
				0.5
			],
			"translation":[
				0.6423483490943909,
				0.006384730339050293,
				0.6493707299232483
			]
		},
		{
			"mesh":2,
			"name":"3",
			"scale":[
				0.5,
				0.5,
				0.5
			],
			"translation":[
				0.6423483490943909,
				0.006384730339050293,
				-0.7702808976173401
			]
		},
		{
			"mesh":3,
			"name":"1+",
			"rotation":[
				0,
				0,
				1,
				7.549790126404332e-08
			],
			"scale":[
				0.5,
				0.5,
				0.5
			],
			"translation":[
				-0.7589032053947449,
				0.03935861587524414,
				0.6493707299232483
			]
		}
	],
	"animations":[
		{
			"channels":[
				{
					"sampler":0,
					"target":{
						"node":3,
						"path":"translation"
					}
				}
			],
			"name":"1+Action.001",
			"samplers":[
				{
					"input":15,
					"interpolation":"LINEAR",
					"output":16
				}
			]
		}
	],
	"materials":[
		{
			"doubleSided":true,
			"name":"Material 1",
			"pbrMetallicRoughness":{
				"baseColorFactor":[
					0.04637408256530762,
					0.018840907141566277,
					0.01694752834737301,
					1
				],
				"metallicFactor":0,
				"roughnessFactor":0.5679012537002563
			}
		},
		{
			"doubleSided":true,
			"name":"Material 2",
			"pbrMetallicRoughness":{
				"baseColorFactor":[
					0.1336471289396286,
					0.00783925037831068,
					0.04715089499950409,
					1
				],
				"metallicFactor":0,
				"roughnessFactor":0.5
			}
		},
		{
			"doubleSided":true,
			"extensions":{
				"KHR_materials_specular":{
					"specularFactor":0.800000011920929
				}
			},
			"name":"Material 3",
			"pbrMetallicRoughness":{
				"baseColorFactor":[
					0.00013431473053060472,
					0.2177315205335617,
					0.10332299768924713,
					1
				],
				"metallicFactor":0,
				"roughnessFactor":0.5
			}
		}
	],
	"meshes":[
		{
			"name":"Mesh",
			"primitives":[
				{
					"attributes":{
						"POSITION":0,
						"NORMAL":1,
						"TEXCOORD_0":2
					},
					"indices":3,
					"material":0
				}
			]
		},
		{
			"name":"Mesh",
			"primitives":[
				{
					"attributes":{
						"POSITION":4,
						"NORMAL":5,
						"TEXCOORD_0":6
					},
					"indices":7,
					"material":1
				}
			]
		},
		{
			"name":"Mesh",
			"primitives":[
				{
					"attributes":{
						"POSITION":8,
						"NORMAL":9,
						"TEXCOORD_0":10
					},
					"indices":11,
					"material":2
				}
			]
		},
		{
			"name":"Mesh",
			"primitives":[
				{
					"attributes":{
						"POSITION":12,
						"NORMAL":13,
						"TEXCOORD_0":14
					},
					"indices":3,
					"material":0
				}
			]
		}
	],
	"accessors":[
		{
			"bufferView":0,
			"componentType":5126,
			"count":3082,
			"max":[
				1.0000001192092896,
				0.03229815885424614,
				1.0000001192092896
			],
			"min":[
				-1.0000001192092896,
				-1,
				-1.0000001192092896
			],
			"type":"VEC3"
		},
		{
			"bufferView":1,
			"componentType":5126,
			"count":3082,
			"type":"VEC3"
		},
		{
			"bufferView":2,
			"componentType":5126,
			"count":3082,
			"type":"VEC2"
		},
		{
			"bufferView":3,
			"componentType":5123,
			"count":16128,
			"type":"SCALAR"
		},
		{
			"bufferView":4,
			"componentType":5126,
			"count":1649,
			"max":[
				1,
				1,
				1
			],
			"min":[
				-1,
				-1,
				-1
			],
			"type":"VEC3"
		},
		{
			"bufferView":5,
			"componentType":5126,
			"count":1649,
			"type":"VEC3"
		},
		{
			"bufferView":6,
			"componentType":5126,
			"count":1649,
			"type":"VEC2"
		},
		{
			"bufferView":7,
			"componentType":5123,
			"count":9216,
			"type":"SCALAR"
		},
		{
			"bufferView":8,
			"componentType":5126,
			"count":6671,
			"max":[
				1.0000001192092896,
				1.0000001192092896,
				1.0000001192092896
			],
			"min":[
				-1.0000001192092896,
				-1.0000001192092896,
				-1.0000001192092896
			],
			"type":"VEC3"
		},
		{
			"bufferView":9,
			"componentType":5126,
			"count":6671,
			"type":"VEC3"
		},
		{
			"bufferView":10,
			"componentType":5126,
			"count":6671,
			"type":"VEC2"
		},
		{
			"bufferView":11,
			"componentType":5123,
			"count":36864,
			"type":"SCALAR"
		},
		{
			"bufferView":12,
			"componentType":5126,
			"count":3082,
			"max":[
				1.0000001192092896,
				0.03229815885424614,
				1.0000001192092896
			],
			"min":[
				-1.0000001192092896,
				-1,
				-1.0000001192092896
			],
			"type":"VEC3"
		},
		{
			"bufferView":13,
			"componentType":5126,
			"count":3082,
			"type":"VEC3"
		},
		{
			"bufferView":14,
			"componentType":5126,
			"count":3082,
			"type":"VEC2"
		},
		{
			"bufferView":15,
			"componentType":5126,
			"count":31,
			"max":[
				1.5
			],
			"min":[
				0.25
			],
			"type":"SCALAR"
		},
		{
			"bufferView":16,
			"componentType":5126,
			"count":31,
			"type":"VEC3"
		}
	],
	"bufferViews":[
		{
			"buffer":0,
			"byteLength":36984,
			"byteOffset":0,
			"target":34962
		},
		{
			"buffer":0,
			"byteLength":36984,
			"byteOffset":36984,
			"target":34962
		},
		{
			"buffer":0,
			"byteLength":24656,
			"byteOffset":73968,
			"target":34962
		},
		{
			"buffer":0,
			"byteLength":32256,
			"byteOffset":98624,
			"target":34963
		},
		{
			"buffer":0,
			"byteLength":19788,
			"byteOffset":130880,
			"target":34962
		},
		{
			"buffer":0,
			"byteLength":19788,
			"byteOffset":150668,
			"target":34962
		},
		{
			"buffer":0,
			"byteLength":13192,
			"byteOffset":170456,
			"target":34962
		},
		{
			"buffer":0,
			"byteLength":18432,
			"byteOffset":183648,
			"target":34963
		},
		{
			"buffer":0,
			"byteLength":80052,
			"byteOffset":202080,
			"target":34962
		},
		{
			"buffer":0,
			"byteLength":80052,
			"byteOffset":282132,
			"target":34962
		},
		{
			"buffer":0,
			"byteLength":53368,
			"byteOffset":362184,
			"target":34962
		},
		{
			"buffer":0,
			"byteLength":73728,
			"byteOffset":415552,
			"target":34963
		},
		{
			"buffer":0,
			"byteLength":36984,
			"byteOffset":489280,
			"target":34962
		},
		{
			"buffer":0,
			"byteLength":36984,
			"byteOffset":526264,
			"target":34962
		},
		{
			"buffer":0,
			"byteLength":24656,
			"byteOffset":563248,
			"target":34962
		},
		{
			"buffer":0,
			"byteLength":124,
			"byteOffset":587904
		},
		{
			"buffer":0,
			"byteLength":372,
			"byteOffset":588028
		}
	],
	"buffers":[
		{
			"byteLength":588400,
			"uri":"Untitled_std.bin"
		}
	]
}
